subject01_states
version=1
nRows=6
nColumns=61
inDegrees=yes

# SIMM Motion File Header:
name subject01_states
datacolumns 61
datarows 6
otherdata 1
range 0.85834855 0.85916738
endheader
time	/jointset/ground_pelvis/pelvis_list/value	/jointset/ground_pelvis/pelvis_list/speed	/jointset/ground_pelvis/pelvis_rotation/value	/jointset/ground_pelvis/pelvis_rotation/speed	/jointset/ground_pelvis/pelvis_tilt/value	/jointset/ground_pelvis/pelvis_tilt/speed	/jointset/ground_pelvis/pelvis_tx/value	/jointset/ground_pelvis/pelvis_tx/speed	/jointset/ground_pelvis/pelvis_ty/value	/jointset/ground_pelvis/pelvis_ty/speed	/jointset/ground_pelvis/pelvis_tz/value	/jointset/ground_pelvis/pelvis_tz/speed	/jointset/hip_r/hip_adduction_r/value	/jointset/hip_r/hip_adduction_r/speed	/jointset/hip_r/hip_rotation_r/value	/jointset/hip_r/hip_rotation_r/speed	/jointset/hip_r/hip_flexion_r/value	/jointset/hip_r/hip_flexion_r/speed	/jointset/hip_l/hip_adduction_l/value	/jointset/hip_l/hip_adduction_l/speed	/jointset/hip_l/hip_rotation_l/value	/jointset/hip_l/hip_rotation_l/speed	/jointset/hip_l/hip_flexion_l/value	/jointset/hip_l/hip_flexion_l/speed	/jointset/knee_r/knee_flexion_r/value	/jointset/knee_r/knee_flexion_r/speed	/jointset/knee_l/knee_flexion_l/value	/jointset/knee_l/knee_flexion_l/speed	/jointset/ankle_r/ankle_dorsiflexion_r/value	/jointset/ankle_r/ankle_dorsiflexion_r/speed	/jointset/ankle_l/ankle_dorsiflexion_l/value	/jointset/ankle_l/ankle_dorsiflexion_l/speed	/forceset/hamstrings_r/activation	/forceset/hamstrings_r/fiber_length	/forceset/glut_max_r/activation	/forceset/glut_max_r/fiber_length	/forceset/ilipsoas_r/activation	/forceset/ilipsoas_r/fiber_length	/forceset/vasti_r/activation	/forceset/vasti_r/fiber_length	/forceset/gastroc_r/activation	/forceset/gastroc_r/fiber_length	/forceset/soleus_r/activation	/forceset/soleus_r/fiber_length	/forceset/tibia_r/activation	/forceset/tibia_r/fiber_length	/forceset/hamstrings_l/activation	/forceset/hamstrings_l/fiber_length	/forceset/glut_max_l/activation	/forceset/glut_max_l/fiber_length	/forceset/ilipsoas_l/activation	/forceset/ilipsoas_l/fiber_length	/forceset/vasti_l/activation	/forceset/vasti_l/fiber_length	/forceset/gastroc_l/activation	/forceset/gastroc_l/fiber_length	/forceset/soleus_l/activation	/forceset/soleus_l/fiber_length	/forceset/tibia_l/activation	/forceset/tibia_l/fiber_length
      0.85834855	      0.00000000	     -0.00000000	     -0.00000000	     -0.00000000	    153.22015337	   1259.15357540	     -0.16796682	     -5.80094247	     -0.88234161	     -0.78674131	      0.00000000	     -0.00000000	     -6.07386607	    333.58006515	     11.13237882	    170.27982933	      4.93681474	  -2178.60648184	      6.07386607	   -333.58006515	    -11.13237882	   -170.27982933	      4.93681474	  -2178.60648184	   -358.74673161	    932.15974229	   -358.74673161	    932.15974229	     12.26177652	   -177.86538495	     12.26177652	   -177.86538495	     -0.08507021	      0.14238327	     -0.08507021	      0.13973792	     -0.08507021	      0.10333018	     -0.08507021	      0.08698032	     -0.08507021	      0.07135149	     -0.08507021	      0.05440053	     -0.08507021	      0.09312498	     -0.08507021	      0.14238327	     -0.08507021	      0.13973792	     -0.08507021	      0.10333018	     -0.08507021	      0.08698032	     -0.08507021	      0.07135149	     -0.08507021	      0.05440053	     -0.08507021	      0.09312498
      0.85850281	      0.00000000	     -0.00000000	     -0.00000000	     -0.00000000	    153.41434987	   1258.59678207	     -0.16886043	     -5.78466353	     -0.88246205	     -0.77470919	      0.00000000	     -0.00000000	     -6.02236363	    334.14526756	     11.15852930	    168.75963309	      4.60088689	  -2176.66348777	      6.02236363	   -334.14526756	    -11.15852930	   -168.75963309	      4.60088689	  -2176.66348777	   -358.60315849	    929.22177477	   -358.60315849	    929.22177477	     12.23430067	   -178.33996001	     12.23430067	   -178.33996001	     -0.08509007	      0.14232250	     -0.08509007	      0.13972148	     -0.08509007	      0.10357178	     -0.08509007	      0.08696999	     -0.08509007	      0.07138553	     -0.08509007	      0.05439029	     -0.08509007	      0.09311442	     -0.08509007	      0.14232250	     -0.08509007	      0.13972148	     -0.08509007	      0.10357178	     -0.08509007	      0.08696999	     -0.08509007	      0.07138553	     -0.08509007	      0.05439029	     -0.08509007	      0.09311442
      0.85865707	      0.00000000	     -0.00000000	     -0.00000000	     -0.00000000	    153.60845572	   1257.97814930	     -0.16975148	     -5.76780019	     -0.88258062	     -0.76251113	      0.00000000	     -0.00000000	     -5.97077611	    334.68315821	     11.18444440	    167.22819878	      4.26527698	  -2174.48436221	      5.97077611	   -334.68315821	    -11.18444440	   -167.22819878	      4.26527698	  -2174.48436221	   -358.46005832	    926.03040259	   -358.46005832	    926.03040259	     12.20676215	   -178.67500726	     12.20676215	   -178.67500726	     -0.08510993	      0.14226199	     -0.08510993	      0.13970504	     -0.08510993	      0.10381258	     -0.08510993	      0.08695966	     -0.08510993	      0.07141938	     -0.08510993	      0.05437987	     -0.08510993	      0.09310386	     -0.08510993	      0.14226199	     -0.08510993	      0.13970504	     -0.08510993	      0.10381258	     -0.08510993	      0.08695966	     -0.08510993	      0.07141938	     -0.08510993	      0.05437987	     -0.08510993	      0.09310386
      0.85884658	      0.00000000	     -0.00000000	     -0.00000000	     -0.00000000	    153.84677617	   1257.13253899	     -0.17084251	     -5.74628056	     -0.88272368	     -0.74730417	      0.00000000	     -0.00000000	     -5.90729071	    335.30595540	     11.21595634	    165.33200273	      3.85347009	  -2171.47845721	      5.90729071	   -335.30595540	    -11.21595634	   -165.33200273	      3.85347009	  -2171.47845721	   -358.28496624	    921.73943162	   -358.28496624	    921.73943162	     12.17287645	   -178.91108215	     12.17287645	   -178.91108215	     -0.08513433	      0.14218799	     -0.08513433	      0.13968484	     -0.08513433	      0.10410726	     -0.08513433	      0.08694697	     -0.08513433	      0.07146069	     -0.08513433	      0.05436681	     -0.08513433	      0.09309088	     -0.08513433	      0.14218799	     -0.08513433	      0.13968484	     -0.08513433	      0.10410726	     -0.08513433	      0.08694697	     -0.08513433	      0.07146069	     -0.08513433	      0.05436681	     -0.08513433	      0.09309088
      0.85901696	      0.00000000	     -0.00000000	     -0.00000000	     -0.00000000	    154.06089343	   1256.29133979	     -0.17181985	     -5.72618060	     -0.88284983	     -0.73343067	      0.00000000	     -0.00000000	     -5.85011681	    335.82983214	     11.24397908	    163.61354892	      3.48375013	  -2168.46745763	      5.85011681	   -335.82983214	    -11.24397908	   -163.61354892	      3.48375013	  -2168.46745763	   -358.12827440	    917.55380647	   -358.12827440	    917.55380647	     12.14238913	   -178.93524947	     12.14238913	   -178.93524947	     -0.08515627	      0.14212178	     -0.08515627	      0.13966668	     -0.08515627	      0.10437109	     -0.08515627	      0.08693557	     -0.08515627	      0.07149756	     -0.08515627	      0.05435485	     -0.08515627	      0.09307922	     -0.08515627	      0.14212178	     -0.08515627	      0.13966668	     -0.08515627	      0.10437109	     -0.08515627	      0.08693557	     -0.08515627	      0.07149756	     -0.08515627	      0.05435485	     -0.08515627	      0.09307922
      0.85916738	      0.00000000	     -0.00000000	     -0.00000000	     -0.00000000	    154.24980854	   1255.48422627	     -0.17267983	     -5.70784006	     -0.88295922	     -0.72102775	      0.00000000	     -0.00000000	     -5.79956734	    336.26347493	     11.26847555	    162.08614985	      3.15777851	  -2165.56102055	      5.79956734	   -336.26347493	    -11.26847555	   -162.08614985	      3.15777851	  -2165.56102055	   -357.99054919	    913.57248391	   -357.99054919	    913.57248391	     12.11547968	   -178.83052499	     12.11547968	   -178.83052499	     -0.08517563	      0.14206358	     -0.08517563	      0.13965065	     -0.08517563	      0.10460312	     -0.08517563	      0.08692550	     -0.08517563	      0.07152991	     -0.08517563	      0.05434413	     -0.08517563	      0.09306892	     -0.08517563	      0.14206358	     -0.08517563	      0.13965065	     -0.08517563	      0.10460312	     -0.08517563	      0.08692550	     -0.08517563	      0.07152991	     -0.08517563	      0.05434413	     -0.08517563	      0.09306892
